<?xml version="1.0" encoding="utf-8"?>
<!-- Generator: Adobe Illustrator 16.0.0, SVG Export Plug-In . SVG Version: 6.00 Build 0)  -->
<!DOCTYPE svg PUBLIC "-//W3C//DTD SVG 1.1//EN" "http://www.w3.org/Graphics/SVG/1.1/DTD/svg11.dtd">
<svg version="1.1"
	 id="svg2" xmlns:sodipodi="http://sodipodi.sourceforge.net/DTD/sodipodi-0.dtd" xmlns:inkscape="http://www.inkscape.org/namespaces/inkscape" xmlns:svg="http://www.w3.org/2000/svg" xmlns:rdf="http://www.w3.org/1999/02/22-rdf-syntax-ns#" xmlns:cc="http://creativecommons.org/ns#" xmlns:dc="http://purl.org/dc/elements/1.1/" inkscape:version="0.48.3.1 r9886" sodipodi:docname="Qwerty.svg"
	 xmlns="http://www.w3.org/2000/svg" xmlns:xlink="http://www.w3.org/1999/xlink" x="0px" y="0px" width="799px" height="274px"
	 viewBox="0 0 799 274" enable-background="new 0 0 799 274" xml:space="preserve">
<sodipodi:namedview  bordercolor="#666666" borderopacity="1" objecttolerance="10" gridtolerance="10" guidetolerance="10" showgrid="false" inkscape:zoom="1.4317897" inkscape:cx="405.08741" inkscape:cy="248.37413" pagecolor="#ffffff" id="namedview484" inkscape:current-layer="Layer 1" inkscape:window-maximized="1" inkscape:window-y="27" inkscape:window-x="0" inkscape:window-height="1024" inkscape:window-width="1920" inkscape:pageopacity="0" inkscape:snap-center="false" inkscape:pageshadow="2">
	</sodipodi:namedview>
<g id="g361" transform="matrix(0.774557,0,0,0.77345,386.432,-19.2122)">
</g>
<g>
	<path id="path9" inkscape:connector-curvature="0" fill="#F5F6F7" d="M32.294,3.307h738.229c13.165,0,23.291,10.104,23.291,24.698
		V243.56c0,13.473-10.126,25.821-23.291,25.821H32.294c-14.177,0-25.317-12.349-25.317-25.821V28.006
		C6.977,13.412,18.116,3.307,32.294,3.307z"/>
	<path id="path11" fill="#97C5D5" d="M65.3,38.082h30.695c1.535,0,4.604,1.535,4.604,4.604v26.093c0,3.069-3.069,4.604-4.604,4.604
		H65.3c-3.07,0-4.605-1.536-4.605-4.604V42.686C60.695,39.617,62.23,38.082,65.3,38.082z"/>
	<path id="row0_0_0b" fill="#97C5D5" d="M111.344,38.082h30.697c3.069,0,4.604,1.535,4.604,4.604v26.093
		c0,3.069-1.535,4.604-4.604,4.604h-30.697c-3.069,0-4.604-1.536-4.604-4.604V42.686C106.739,39.617,108.274,38.082,111.344,38.082z
		"/>
	<path id="row0_1_0b" fill="#97C5D5" d="M155.853,38.082h30.695c3.07,0,4.605,1.535,4.605,4.604v26.093
		c0,3.069-1.535,4.604-4.605,4.604h-30.695c-1.535,0-3.069-1.536-3.069-4.604V42.686C152.783,39.617,154.318,38.082,155.853,38.082z
		"/>
	<path id="row0_2_0b" fill="#97C5D5" d="M201.897,38.082h30.695c3.069,0,4.604,1.535,4.604,4.604v26.093
		c0,3.069-1.535,4.604-4.604,4.604h-30.695c-3.07,0-4.605-1.536-4.605-4.604V42.686C197.292,39.617,198.827,38.082,201.897,38.082z"
		/>
	<path id="row0_3_0b" fill="#97C5D5" d="M247.941,38.082h30.696c3.069,0,4.604,1.535,4.604,4.604v26.093
		c0,3.069-1.535,4.604-4.604,4.604h-30.696c-1.534,0-4.604-1.536-4.604-4.604V42.686C243.336,39.617,246.407,38.082,247.941,38.082z
		"/>
	<path id="row0_3_1b" fill="#97C5D5" d="M293.985,38.082h29.162c3.069,0,4.604,1.535,4.604,4.604v26.093
		c0,3.069-1.535,4.604-4.604,4.604h-29.162c-1.535,0-4.604-1.536-4.604-4.604V42.686C289.381,39.617,292.45,38.082,293.985,38.082z"
		/>
	<path id="row0_4_0b" fill="#97C5D5" d="M338.494,38.082h30.695c3.071,0,4.604,1.535,4.604,4.604v26.093
		c0,3.069-1.534,4.604-4.604,4.604h-30.695c-1.535,0-4.604-1.536-4.604-4.604V42.686C333.89,39.617,336.959,38.082,338.494,38.082z"
		/>
	<path id="row0_4_1b" fill="#97C5D5" d="M384.537,38.082h30.697c3.068,0,4.604,1.535,4.604,4.604v26.093
		c0,3.069-1.535,4.604-4.604,4.604h-30.697c-1.534,0-4.604-1.536-4.604-4.604V42.686C379.933,39.617,383.004,38.082,384.537,38.082z
		"/>
	<path id="row0_5_0b" fill="#97C5D5" d="M430.582,38.082h29.161c3.068,0,4.604,1.535,4.604,4.604v26.093
		c0,3.069-1.535,4.604-4.604,4.604h-29.161c-1.535,0-4.604-1.536-4.604-4.604V42.686C425.978,39.617,429.047,38.082,430.582,38.082z
		"/>
	<path id="row0_6_0b" fill="#97C5D5" d="M475.092,38.082h30.694c3.071,0,4.604,1.535,4.604,4.604v26.093
		c0,3.069-1.533,4.604-4.604,4.604h-30.694c-1.535,0-4.605-1.536-4.605-4.604V42.686C470.487,39.617,473.557,38.082,475.092,38.082z
		"/>
	<path id="row0_7_0b" fill="#97C5D5" d="M521.134,38.082h30.698c3.068,0,4.604,1.535,4.604,4.604v26.093
		c0,3.069-1.535,4.604-4.604,4.604h-30.698c-1.533,0-4.604-1.536-4.604-4.604V42.686C516.531,39.617,519.601,38.082,521.134,38.082z
		"/>
	<path id="row0_7_1b" fill="#97C5D5" d="M567.179,38.082h30.695c1.535,0,3.07,1.535,3.07,4.604v26.093c0,3.069-1.535,4.604-3.07,4.604
		h-30.695c-1.535,0-4.604-1.536-4.604-4.604V42.686C562.575,39.617,565.644,38.082,567.179,38.082z"/>
	<path id="row0_7_2b" fill="#97C5D5" d="M611.689,38.082h30.695c3.07,0,4.604,1.535,4.604,4.604v26.093
		c0,3.069-1.534,4.604-4.604,4.604h-30.695c-1.535,0-3.071-1.536-3.071-4.604V42.686C608.617,39.617,610.154,38.082,611.689,38.082z
		"/>
	<path id="path37" fill="#97C5D5" d="M657.732,38.082h30.696c3.069,0,4.604,1.535,4.604,4.604v26.093
		c0,3.069-1.535,4.604-4.604,4.604h-30.696c-1.533,0-3.068-1.536-3.068-4.604V42.686C654.663,39.617,656.198,38.082,657.732,38.082z
		"/>
	<path id="path39" fill="#97C5D5" d="M703.776,38.082h30.696c3.07,0,4.604,1.535,4.604,4.604v26.093
		c0,3.069-1.534,4.604-4.604,4.604h-30.696c-1.535,0-3.07-1.536-3.07-4.604V42.686C700.705,39.617,702.24,38.082,703.776,38.082z"/>
	<path id="row1_0_0b" fill="#97C5D5" d="M138.969,76.452h29.162c3.069,0,4.604,1.535,4.604,4.604v27.626
		c0,1.535-1.535,4.604-4.604,4.604h-29.162c-1.535,0-4.604-3.069-4.604-4.604V81.056C134.365,77.987,137.434,76.452,138.969,76.452z
		"/>
	<path id="row1_1_0b" fill="#97C5D5" d="M183.479,76.452h30.696c3.07,0,4.605,1.535,4.605,4.604v27.626
		c0,1.535-1.535,4.604-4.605,4.604h-30.696c-1.535,0-4.604-3.069-4.604-4.604V81.056C178.875,77.987,181.944,76.452,183.479,76.452z
		"/>
	<path id="row1_2_0b" fill="#97C5D5" d="M229.524,76.452h30.695c3.069,0,4.604,1.535,4.604,4.604v27.626
		c0,1.535-1.535,4.604-4.604,4.604h-30.695c-1.535,0-4.606-3.069-4.606-4.604V81.056C224.918,77.987,227.989,76.452,229.524,76.452z
		"/>
	<path id="row1_3_0b" fill="#97C5D5" d="M275.567,76.452h29.162c3.069,0,4.604,1.535,4.604,4.604v27.626
		c0,1.535-1.536,4.604-4.604,4.604h-29.162c-1.535,0-4.604-3.069-4.604-4.604V81.056C270.963,77.987,274.031,76.452,275.567,76.452z
		"/>
	<path id="row1_3_1b" fill="#97C5D5" d="M320.076,76.452h30.696c3.07,0,4.605,1.535,4.605,4.604v27.626
		c0,1.535-1.535,4.604-4.605,4.604h-30.696c-1.535,0-3.069-3.069-3.069-4.604V81.056C317.007,77.987,318.541,76.452,320.076,76.452z
		"/>
	<path id="row1_4_0b" fill="#97C5D5" d="M366.121,76.452h30.695c3.07,0,4.604,1.535,4.604,4.604v27.626
		c0,1.535-1.534,4.604-4.604,4.604h-30.695c-1.536,0-3.071-3.069-3.071-4.604V81.056C363.05,77.987,364.585,76.452,366.121,76.452z"
		/>
	<path id="row1_4_1b" fill="#97C5D5" d="M412.164,76.452h30.696c3.069,0,4.604,1.535,4.604,4.604v27.626
		c0,1.535-1.535,4.604-4.604,4.604h-30.696c-1.534,0-3.069-3.069-3.069-4.604V81.056C409.095,77.987,410.63,76.452,412.164,76.452z"
		/>
	<path id="row1_5_0b" fill="#97C5D5" d="M456.673,76.452h30.697c3.069,0,4.604,1.535,4.604,4.604v27.626
		c0,1.535-1.535,4.604-4.604,4.604h-30.697c-1.535,0-3.069-3.069-3.069-4.604V81.056C453.604,77.987,455.138,76.452,456.673,76.452z
		"/>
	<path id="row1_6_0b" fill="#97C5D5" d="M502.718,76.452h30.695c3.07,0,4.604,1.535,4.604,4.604v27.626
		c0,1.535-1.533,4.604-4.604,4.604h-30.695c-1.535,0-3.07-3.069-3.07-4.604V81.056C499.648,77.987,501.183,76.452,502.718,76.452z"
		/>
	<path id="row1_7_0b" fill="#97C5D5" d="M548.76,76.452h30.698c3.068,0,4.604,1.535,4.604,4.604v27.626
		c0,1.535-1.535,4.604-4.604,4.604H548.76c-1.533,0-3.068-3.069-3.068-4.604V81.056C545.692,77.987,547.227,76.452,548.76,76.452z"
		/>
	<path id="path61" fill="#97C5D5" d="M594.806,76.452h29.161c3.068,0,4.604,1.535,4.604,4.604v27.626
		c0,1.535-1.535,4.604-4.604,4.604h-29.161c-1.535,0-3.069-3.069-3.069-4.604V81.056C591.737,77.987,593.271,76.452,594.806,76.452z
		"/>
	<path id="path63" fill="#97C5D5" d="M639.315,76.452h30.695c3.069,0,4.604,1.535,4.604,4.604v27.626
		c0,1.535-1.535,4.604-4.604,4.604h-30.695c-1.535,0-3.07-3.069-3.07-4.604V81.056C636.244,77.987,637.78,76.452,639.315,76.452z"/>
	<path id="row2_0_0b" fill="#97C5D5" d="M151.248,116.357h29.162c1.534,0,4.604,1.535,4.604,3.069v29.161
		c0,1.535-3.071,3.068-4.604,3.068h-29.162c-3.07,0-4.604-1.533-4.604-3.068v-29.161
		C146.644,117.892,148.178,116.357,151.248,116.357z"/>
	<path id="row2_1_0b" fill="#97C5D5" d="M195.758,116.357h30.695c1.535,0,4.604,1.535,4.604,3.069v29.161
		c0,1.535-3.069,3.068-4.604,3.068h-30.695c-3.071,0-4.604-1.533-4.604-3.068v-29.161
		C191.154,117.892,192.687,116.357,195.758,116.357z"/>
	<path id="row2_2_0b" fill="#97C5D5" d="M241.801,116.357h30.697c3.069,0,4.604,1.535,4.604,3.069v29.161
		c0,1.535-1.535,3.068-4.604,3.068h-30.697c-3.069,0-4.604-1.533-4.604-3.068v-29.161
		C237.197,117.892,238.732,116.357,241.801,116.357z"/>
	<path id="row2_3_0b" fill="#97C5D5" d="M287.845,116.357h29.162c3.069,0,4.604,1.535,4.604,3.069v29.161
		c0,1.535-1.536,3.068-4.604,3.068h-29.162c-3.069,0-4.604-1.533-4.604-3.068v-29.161
		C283.241,117.892,284.777,116.357,287.845,116.357z"/>
	<path id="row2_3_1b" fill="#97C5D5" d="M332.355,116.357h30.695c3.071,0,4.604,1.535,4.604,3.069v29.161
		c0,1.535-1.534,3.068-4.604,3.068h-30.695c-3.071,0-4.604-1.533-4.604-3.068v-29.161
		C327.751,117.892,329.284,116.357,332.355,116.357z"/>
	<path id="row2_4_0b" fill="#97C5D5" d="M378.398,116.357h30.697c3.069,0,4.604,1.535,4.604,3.069v29.161
		c0,1.535-1.535,3.068-4.604,3.068h-30.697c-1.534,0-4.604-1.533-4.604-3.068v-29.161
		C373.794,117.892,376.865,116.357,378.398,116.357z"/>
	<path id="row2_4_1b" fill="#97C5D5" d="M424.443,116.357h29.161c3.069,0,4.604,1.535,4.604,3.069v29.161
		c0,1.535-1.535,3.068-4.604,3.068h-29.161c-1.535,0-4.604-1.533-4.604-3.068v-29.161
		C419.838,117.892,422.907,116.357,424.443,116.357z"/>
	<path id="row2_5_0b" fill="#97C5D5" d="M468.951,116.357h30.696c3.07,0,4.604,1.535,4.604,3.069v29.161
		c0,1.535-1.533,3.068-4.604,3.068h-30.696c-1.535,0-4.604-1.533-4.604-3.068v-29.161
		C464.347,117.892,467.416,116.357,468.951,116.357z"/>
	<path id="row2_6_0b" fill="#97C5D5" d="M514.996,116.357h30.695c3.068,0,4.604,1.535,4.604,3.069v29.161
		c0,1.535-1.536,3.068-4.604,3.068h-30.695c-1.535,0-4.605-1.533-4.605-3.068v-29.161
		C510.391,117.892,513.461,116.357,514.996,116.357z"/>
	<path id="row2_7_0b" fill="#97C5D5" d="M561.04,116.357h30.696c3.069,0,4.604,1.535,4.604,3.069v29.161
		c0,1.535-1.535,3.068-4.604,3.068H561.04c-1.535,0-4.604-1.533-4.604-3.068v-29.161
		C556.436,117.892,559.505,116.357,561.04,116.357z"/>
	<path id="row2_7_1b" fill="#97C5D5" d="M605.549,116.357h30.695c3.07,0,4.604,1.535,4.604,3.069v29.161
		c0,1.535-1.533,3.068-4.604,3.068h-30.695c-1.535,0-4.604-1.533-4.604-3.068v-29.161
		C600.945,117.892,604.014,116.357,605.549,116.357z"/>
	<path id="row3_0_0b" fill="#97C5D5" d="M166.596,154.725h32.23c1.535,0,3.07,3.069,3.07,4.604v26.089c0,3.07-1.535,4.604-3.07,4.604
		h-32.23c-1.535,0-3.069-1.534-3.069-4.604V159.33C163.528,157.795,165.061,154.725,166.596,154.725z"/>
	<path id="row3_1_0b" fill="#97C5D5" d="M212.641,154.725h32.23c1.536,0,3.069,3.069,3.069,4.604v26.089
		c0,3.07-1.534,4.604-3.069,4.604h-32.23c-1.535,0-3.07-1.534-3.07-4.604V159.33C209.571,157.795,211.106,154.725,212.641,154.725z"
		/>
	<path id="row3_2_0b" fill="#97C5D5" d="M258.684,154.725h32.231c1.535,0,3.07,3.069,3.07,4.604v26.089c0,3.07-1.535,4.604-3.07,4.604
		h-32.231c-1.534,0-3.069-1.534-3.069-4.604V159.33C255.615,157.795,257.15,154.725,258.684,154.725z"/>
	<path id="row3_3_0b" fill="#97C5D5" d="M350.772,154.725h30.697c1.535,0,3.069,3.069,3.069,4.604v26.089
		c0,3.07-1.534,4.604-3.069,4.604h-30.697c-3.069,0-4.604-1.534-4.604-4.604V159.33
		C346.167,157.795,347.702,154.725,350.772,154.725z"/>
	<path id="row3_3_1b" fill="#97C5D5" d="M396.816,154.725h30.696c1.535,0,3.07,3.069,3.07,4.604v26.089c0,3.07-1.535,4.604-3.07,4.604
		h-30.696c-3.069,0-4.604-1.534-4.604-4.604V159.33C392.212,157.795,393.747,154.725,396.816,154.725z"/>
	<path id="row3_4_0b" fill="#97C5D5" d="M442.861,154.725h29.161c1.535,0,3.07,3.069,3.07,4.604v26.089c0,3.07-1.535,4.604-3.07,4.604
		h-29.161c-3.07,0-4.604-1.534-4.604-4.604V159.33C438.256,157.795,439.79,154.725,442.861,154.725z"/>
	<path id="row3_4_1b" fill="#97C5D5" d="M487.37,154.725h30.695c1.535,0,3.068,3.069,3.068,4.604v26.089
		c0,3.07-1.533,4.604-3.068,4.604H487.37c-3.07,0-4.605-1.534-4.605-4.604V159.33C482.765,157.795,484.3,154.725,487.37,154.725z"/>
	<path id="row3_5_0b" fill="#97C5D5" d="M533.413,154.725h30.697c1.533,0,3.068,3.069,3.068,4.604v26.089
		c0,3.07-1.535,4.604-3.068,4.604h-30.697c-3.069,0-4.604-1.534-4.604-4.604V159.33
		C528.809,157.795,530.344,154.725,533.413,154.725z"/>
	<path id="row3_6_0b" fill="#97C5D5" d="M579.458,154.725h29.159c1.536,0,3.071,3.069,3.071,4.604v26.089
		c0,3.07-1.535,4.604-3.071,4.604h-29.159c-3.07,0-4.604-1.534-4.604-4.604V159.33C574.854,157.795,576.388,154.725,579.458,154.725
		z"/>
	<path id="space" fill="#97C5D5" d="M241.801,193.094h-16.883c-3.069,0-4.604,1.535-4.604,4.604v27.627
		c0,3.069,1.535,4.604,4.604,4.604h16.883h257.847h27.626c0,0,1.535-1.535,1.535-4.604v-27.627c0-3.068-1.535-4.604-1.535-4.604
		h-27.626H241.801z"/>
	<path id="path187" fill="#E8A8A5" d="M593.271,193.094h29.161c1.535,0,3.068,1.535,3.068,4.604v27.627
		c0,3.069-1.533,4.604-3.068,4.604h-29.161c-3.069,0-4.604-1.535-4.604-4.604v-27.627
		C588.666,194.629,590.201,193.094,593.271,193.094z"/>
	<path id="path189" fill="#A97CA9" d="M637.78,193.094h30.695c1.535,0,3.07,1.535,3.07,4.604v27.627c0,3.069-1.535,4.604-3.07,4.604
		H637.78c-3.069,0-4.604-1.535-4.604-4.604v-27.627C633.175,194.629,634.71,193.094,637.78,193.094z"/>
	<path id="path195" fill="#97C5D5" d="M303.193,154.725h32.231c1.535,0,3.07,3.069,3.07,4.604v26.089c0,3.07-1.535,4.604-3.07,4.604
		h-32.231c0,0-1.535-1.534-1.535-4.604V159.33C301.658,157.795,303.193,154.725,303.193,154.725z"/>
	<path id="path197" fill="#97C5D5" d="M65.3,113.286c-3.07,0-4.605-3.069-4.605-4.604V81.056c0-3.069,1.535-4.604,4.605-4.604
		h58.322c3.069,0,4.604,1.535,4.604,4.604v27.626c0,1.535-1.535,4.604-4.604,4.604H65.3z"/>
	<path id="path199" fill="#97C5D5" d="M65.3,151.656c-1.535,0-4.605-1.533-4.605-3.068v-29.161c0-1.534,3.07-3.069,4.605-3.069
		h69.065c3.069,0,6.139,1.535,6.139,3.069v29.161c0,1.535-3.07,3.068-6.139,3.068H65.3z"/>
	<g id="g201" transform="matrix(0.774557,0,0,0.77345,-210.373,-10.3173)">
		
			<text id="row1_8_0" transform="matrix(1.2929 0 0 1.2929 459.8403 146.2845)" fill="#2B2828" font-family="'ArialMT'" font-size="21.3676"></text>
	</g>
	<g id="g205" transform="matrix(0.774557,0,0,0.77345,-182.661,-10.3173)">
		
			<text id="row1_9_0" transform="matrix(1.2929 0 0 1.2929 478.9748 146.2845)" fill="#2B2828" font-family="'ArialMT'" font-size="21.3676"></text>
	</g>
	<g id="g209" transform="matrix(0.774557,0,0,0.77345,-150,-10.3173)">
		
			<text id="row1_10_0" transform="matrix(1.2929 0 0 1.2929 501.5256 146.2845)" fill="#2B2828" font-family="'ArialMT'" font-size="21.3676"></text>
	</g>
	<g id="g213" transform="matrix(0.774557,0,0,0.77345,-121.298,-10.3173)">
		
			<text id="row1_11_0" transform="matrix(1.2929 0 0 1.2929 521.3425 146.2845)" fill="#2B2828" font-family="'ArialMT'" font-size="21.3676"></text>
	</g>
	<g id="g217" transform="matrix(0.774557,0,0,0.77345,-90.6165,-10.3173)">
		
			<text id="row1_11_1" transform="matrix(1.2929 0 0 1.2929 542.5273 146.2845)" fill="#2B2828" font-family="'ArialMT'" font-size="21.3676"></text>
	</g>
	<g id="g221" transform="matrix(0.774557,0,0,0.77345,-60.9247,-10.3173)">
		
			<text id="row1_12_0" transform="matrix(1.2929 0 0 1.2929 563.0274 146.2845)" fill="#2B2828" font-family="'ArialMT'" font-size="21.3676"></text>
	</g>
	<g id="g225" transform="matrix(0.774557,0,0,0.77345,-31.2329,-10.3173)">
		
			<text id="row1_12_1" transform="matrix(1.2929 0 0 1.2929 583.53 146.2845)" fill="#2B2828" font-family="'ArialMT'" font-size="21.3676"></text>
	</g>
	<g id="g229" transform="matrix(0.774557,0,0,0.77345,1.42831,-10.3173)">
		
			<text id="row1_13_0" transform="matrix(1.2929 0 0 1.2929 606.0794 146.2845)" fill="#2B2828" font-family="'ArialMT'" font-size="21.3676"></text>
	</g>
	<g id="g233" transform="matrix(0.774557,0,0,0.77345,27.1613,-10.3173)">
		
			<text id="row1_14_0" transform="matrix(1.2929 0 0 1.2929 623.8484 146.2845)" fill="#2B2828" font-family="'ArialMT'" font-size="21.3676"></text>
	</g>
	<g id="g237" transform="matrix(0.774557,0,0,0.77345,57.8426,-10.3173)">
		
			<text id="row1_15_0" transform="matrix(1.2929 0 0 1.2929 645.0328 146.2845)" fill="#2B2828" font-family="'ArialMT'" font-size="21.3676"></text>
	</g>
	<g id="g241" transform="matrix(0.774557,0,0,0.77345,-202.456,15.3789)">
		
			<text id="row2_8_0" transform="matrix(1.2929 0 0 1.2929 465.3059 164.052)" fill="#2B2828" font-family="'ArialMT'" font-size="21.3676"></text>
	</g>
	<g id="g245" transform="matrix(0.774557,0,0,0.77345,-171.774,15.3789)">
		
			<text id="row2_9_0" transform="matrix(1.2929 0 0 1.2929 486.492 164.0521)" fill="#2B2828" font-family="'ArialMT'" font-size="21.3676"></text>
	</g>
	<g id="g249" transform="matrix(0.774557,0,0,0.77345,-143.072,15.3789)">
		
			<text id="row2_10_0" transform="matrix(1.2929 0 0 1.2929 506.3088 164.0522)" fill="#2B2828" font-family="'ArialMT'" font-size="21.3676"></text>
	</g>
	<g id="g253" transform="matrix(0.774557,0,0,0.77345,-112.39,15.3789)">
		
			<text id="row2_11_0" transform="matrix(1.2929 0 0 1.2929 527.4943 164.0522)" fill="#2B2828" font-family="'ArialMT'" font-size="21.3676"></text>
	</g>
	<g id="g257" transform="matrix(0.774557,0,0,0.77345,-83.6883,15.3789)">
		
			<text id="row2_11_1" transform="matrix(1.2929 0 0 1.2929 547.3109 164.0523)" fill="#2B2828" font-family="'ArialMT'" font-size="21.3676"></text>
	</g>
	<g id="g261" transform="matrix(0.774557,0,0,0.77345,-53.9965,15.3789)">
		
			<text id="row2_12_1" transform="matrix(1.2929 0 0 1.2929 567.811 164.0523)" fill="#2B2828" font-family="'ArialMT'" font-size="21.3676"></text>
	</g>
	<g id="g265" transform="matrix(0.774557,0,0,0.77345,-22.3252,15.3789)">
		
			<text id="row2_12_0" transform="matrix(1.2929 0 0 1.2929 589.6809 164.0524)" fill="#2B2828" font-family="'ArialMT'" font-size="21.3676"></text>
	</g>
	<g id="g269" transform="matrix(0.774557,0,0,0.77345,5.38717,15.3789)">
		
			<text id="row2_13_0" transform="matrix(1.2929 0 0 1.2929 608.813 164.0525)" fill="#2B2828" font-family="'ArialMT'" font-size="21.3676"></text>
	</g>
	<g id="g273" transform="matrix(0.774557,0,0,0.77345,36.0689,15.3789)">
		
			<text id="row2_14_0" transform="matrix(1.2929 0 0 1.2929 629.9994 164.0525)" fill="#2B2828" font-family="'ArialMT'" font-size="21.3676"></text>
	</g>
	<g id="g277" transform="matrix(0.774557,0,0,0.77345,-190.579,40.0868)">
		
			<text id="row3_8_0" transform="matrix(1.2929 0 0 1.2929 473.5068 181.137)" fill="#2B2828" font-family="'ArialMT'" font-size="21.3676"></text>
	</g>
	<g id="g281" transform="matrix(0.774557,0,0,0.77345,-160.887,40.0868)">
		
			<text id="row3_9_0" transform="matrix(1.2929 0 0 1.2929 494.0085 181.137)" fill="#2B2828" font-family="'ArialMT'" font-size="21.3676"></text>
	</g>
	<g id="g285" transform="matrix(0.774557,0,0,0.77345,-131.195,40.0868)">
		
			<text id="row3_10_0" transform="matrix(1.2929 0 0 1.2929 514.509 181.137)" fill="#2B2828" font-family="'ArialMT'" font-size="21.3676"></text>
	</g>
	<g id="g289" transform="matrix(0.774557,0,0,0.77345,-101.504,40.0868)">
		
			<text id="row3_11_0" transform="matrix(1.2929 0 0 1.2929 535.0102 181.137)" fill="#2B2828" font-family="'ArialMT'" font-size="21.3676"></text>
	</g>
	<g id="g293" transform="matrix(0.774557,0,0,0.77345,-71.8117,40.0868)">
		
			<text id="row3_11_1" transform="matrix(1.2929 0 0 1.2929 555.5115 181.137)" fill="#2B2828" font-family="'ArialMT'" font-size="21.3676"></text>
	</g>
	<g id="g297" transform="matrix(0.774557,0,0,0.77345,-42.1195,40.0868)">
		
			<text id="row3_12_0" transform="matrix(1.2929 0 0 1.2929 576.0131 181.137)" fill="#2B2828" font-family="'ArialMT'" font-size="21.3676"></text>
	</g>
	<g id="g301" transform="matrix(0.774557,0,0,0.77345,-13.4176,40.0868)">
		
			<text id="row3_12_1" transform="matrix(1.2929 0 0 1.2929 595.8293 181.137)" fill="#2B2828" font-family="'ArialMT'" font-size="21.3676"></text>
	</g>
	<g id="g507" transform="matrix(0.774557,0,0,0.77345,-233.137,-31.0719)">
		
			<text id="row0_0_0" transform="matrix(1.2929 0 0 1.2929 444.1218 131.9345)" fill="#2B2828" font-family="'ArialMT'" font-size="14.2451"></text>
	</g>
	<g id="g511" transform="matrix(0.774557,0,0,0.77345,-204.435,-31.0719)">
		
			<text id="row0_1_0" transform="matrix(1.2929 0 0 1.2929 463.9399 131.9345)" fill="#2B2828" font-family="'ArialMT'" font-size="14.2451"></text>
	</g>
	<g id="g515" transform="matrix(0.774557,0,0,0.77345,-174.743,-31.0719)">
		
			<text id="row0_2_0" transform="matrix(1.2929 0 0 1.2929 484.4417 131.9345)" fill="#2B2828" font-family="'ArialMT'" font-size="14.2451"></text>
	</g>
	<g id="g519" transform="matrix(0.774557,0,0,0.77345,-145.051,-31.0719)">
		
			<text id="row0_3_0" transform="matrix(1.2929 0 0 1.2929 504.9427 131.9345)" fill="#2B2828" font-family="'ArialMT'" font-size="14.2451"></text>
	</g>
	<g id="g523" transform="matrix(0.774557,0,0,0.77345,-114.37,-31.0719)">
		
			<text id="row0_3_1" transform="matrix(1.2929 0 0 1.2929 526.127 131.9345)" fill="#2B2828" font-family="'ArialMT'" font-size="14.2451"></text>
	</g>
	<g id="g527" transform="matrix(0.774557,0,0,0.77345,-84.6778,-31.0719)">
		
			<text id="row0_4_0" transform="matrix(1.2929 0 0 1.2929 546.6278 131.9345)" fill="#2B2828" font-family="'ArialMT'" font-size="14.2451"></text>
	</g>
	<g id="g531" transform="matrix(0.774557,0,0,0.77345,-54.986,-31.0719)">
		
			<text id="row0_4_1" transform="matrix(1.2929 0 0 1.2929 567.1292 131.9345)" fill="#2B2828" font-family="'ArialMT'" font-size="14.2451"></text>
	</g>
	<g id="g535" transform="matrix(0.774557,0,0,0.77345,-26.2841,-31.0719)">
		
			<text id="row0_5_0" transform="matrix(1.2929 0 0 1.2929 586.9449 131.9345)" fill="#2B2828" font-family="'ArialMT'" font-size="14.2451"></text>
	</g>
	<g id="g539" transform="matrix(0.774557,0,0,0.77345,3.40774,-31.0719)">
		
			<text id="row0_6_0" transform="matrix(1.2929 0 0 1.2929 607.4475 131.9345)" fill="#2B2828" font-family="'ArialMT'" font-size="14.2451"></text>
	</g>
	<g id="g543" transform="matrix(0.774557,0,0,0.77345,34.0895,-31.0719)">
		
			<text id="row0_7_0" transform="matrix(1.2929 0 0 1.2929 628.6313 131.9345)" fill="#2B2828" font-family="'ArialMT'" font-size="14.2451"></text>
	</g>
	<path id="path547" fill="none" d="M728.332,53.43h-16.884"/>
	<path id="r_shift" fill="#97C5D5" d="M622.432,190.024c-1.535,0-3.07-1.534-3.07-4.604V159.33c0-1.535,1.535-4.604,3.07-4.604
		h112.04c3.07,0,4.604,3.069,4.604,4.604v26.089c0,3.07-1.534,4.604-4.604,4.604H622.432z"/>
	<path id="path553" fill="#F1EFBE" d="M677.685,116.358h-26.093c-3.068,0-4.604,1.535-4.604,3.069v29.161
		c0,1.535,1.535,3.068,4.604,3.068h82.88c3.07,0,4.604-1.533,4.604-3.068V81.056c0-3.069-1.534-4.604-4.604-4.604h-47.579
		c-3.068,0-4.604,1.535-4.604,4.604v30.697C682.289,114.822,682.289,116.358,677.685,116.358L677.685,116.358z"/>
	<path id="path555" fill="none" d="M709.915,88.731v16.883h-15.348"/>
	<path id="path559" fill="#97C5D5" d="M683.825,193.094h50.647c3.07,0,4.604,1.535,4.604,4.604v27.627
		c0,3.069-1.534,4.604-4.604,4.604h-50.647c-3.07,0-4.605-1.535-4.605-4.604v-27.627
		C679.219,194.629,680.754,193.094,683.825,193.094z"/>
	<path id="l_shift" fill="#97C5D5" d="M65.3,190.024c-1.535,0-4.605-1.534-4.605-4.604c0-7.672,0-16.882,0-26.089
		c0-1.535,3.07-4.604,4.605-4.604c23.021,0,62.926,0,87.483,0c1.534,0,3.069,3.069,3.069,4.604c0,9.208,0,18.417,0,26.089
		c0,3.07-1.535,4.604-3.069,4.604C128.226,190.024,88.321,190.024,65.3,190.024z"/>
	<path id="path563" fill="#97C5D5" d="M65.3,193.094h46.043c1.535,0,3.07,1.535,3.07,4.604v27.627c0,3.069-1.535,4.604-3.07,4.604
		H65.3c-3.07,0-4.605-1.535-4.605-4.604v-27.627C60.695,194.629,62.23,193.094,65.3,193.094z"/>
	<path id="path565" fill="#E8A8A5" d="M126.691,193.094h29.162c3.07,0,4.604,1.535,4.604,4.604v27.627
		c0,1.535-1.534,4.604-4.604,4.604h-29.162c-1.534,0-4.604-3.069-4.604-4.604v-27.627
		C122.087,194.629,125.158,193.094,126.691,193.094z"/>
	<path id="path567" fill="#97C5D5" d="M171.201,193.094h38.37c1.535,0,3.07,1.535,3.07,4.604v27.627c0,1.535-1.535,4.604-3.07,4.604
		h-38.37c-1.534,0-3.069-3.069-3.069-4.604v-27.627C168.132,194.629,169.667,193.094,171.201,193.094z"/>
	<g id="g569" transform="matrix(0.774557,0,0,0.77345,150.877,63.8059)">
		
			<text id="text571" transform="matrix(1.2929 0 0 1.2929 709.2692 197.5359)" fill="#2B2828" font-family="'ArialMT'" font-size="10.6838">Ctrl</text>
	</g>
	<g id="g573" transform="matrix(0.774557,0,0,0.77345,-252.932,63.8059)">
		
			<text id="text575" transform="matrix(1.2929 0 0 1.2929 430.4554 197.536)" fill="#2B2828" font-family="'ArialMT'" font-size="10.6838">Ctrl</text>
	</g>
	<g id="g577" transform="matrix(0.774557,0,0,0.77345,-185.63,62.8175)">
		
			<text id="text579" transform="matrix(1.2929 0 0 1.2929 476.9239 196.8544)" fill="#2B2828" font-family="'ArialMT'" font-size="10.6838">Alt</text>
	</g>
	<g id="g581" transform="matrix(0.774557,0,0,0.77345,3.40774,-45.8965)">
		
			<text id="row0_14_0" transform="matrix(1.2929 0 0 1.2929 607.4475 124.7541)" fill="#2B2828" font-family="'ArialMT'" font-size="14.2451"></text>
	</g>
	<g id="g585" transform="matrix(0.774557,0,0,0.77345,34.0895,-45.8965)">
		
			<text id="row0_15_0" transform="matrix(1.2929 0 0 1.2929 628.6313 124.7541)" fill="#2B2828" font-family="'ArialMT'" font-size="14.2451"></text>
	</g>
	<g id="g589" transform="matrix(0.774557,0,0,0.77345,-25.2942,-45.8965)">
		
			<text id="row0_13_0" transform="matrix(1.2929 0 0 1.2929 587.6287 124.7541)" fill="#2B2828" font-family="'ArialMT'" font-size="14.2451"></text>
	</g>
	<g id="g593" transform="matrix(0.774557,0,0,0.77345,-55.9759,-44.9081)">
		
			<text id="row0_12_1" transform="matrix(1.2929 0 0 1.2929 566.4467 122.3669)" fill="#2B2828" font-family="'ArialMT'" font-size="14.2451"></text>
	</g>
	<g id="g597" transform="matrix(0.774557,0,0,0.77345,-84.6778,-44.9081)">
		
			<text id="row0_12_0" transform="matrix(1.2929 0 0 1.2929 546.6278 122.367)" fill="#2B2828" font-family="'ArialMT'" font-size="14.2451"></text>
	</g>
	<g id="g601" transform="matrix(0.774557,0,0,0.77345,-115.36,-44.9081)">
		
			<text id="row0_11_1" transform="matrix(1.2929 0 0 1.2929 525.4433 122.367)" fill="#2B2828" font-family="'ArialMT'" font-size="14.2451"></text>
	</g>
	<g id="g605" transform="matrix(0.774557,0,0,0.77345,-145.051,-44.9081)">
		
			<text id="row0_11_0" transform="matrix(1.2929 0 0 1.2929 504.9428 122.367)" fill="#2B2828" font-family="'ArialMT'" font-size="14.2451"></text>
	</g>
	<g id="g609" transform="matrix(0.774557,0,0,0.77345,-174.743,-44.9081)">
		
			<text id="row0_10_0" transform="matrix(1.2929 0 0 1.2929 484.4417 122.367)" fill="#2B2828" font-family="'ArialMT'" font-size="14.2451"></text>
	</g>
	<g id="g613" transform="matrix(0.774557,0,0,0.77345,-205.425,-44.9081)">
		
			<text id="row0_9_0" transform="matrix(1.2929 0 0 1.2929 463.2563 122.367)" fill="#2B2828" font-family="'ArialMT'" font-size="14.2451"></text>
	</g>
	<g id="g617" transform="matrix(0.774557,0,0,0.77345,-233.137,-44.9081)">
		
			<text id="row0_8_0" transform="matrix(1.2929 0 0 1.2929 444.1218 122.367)" fill="#2B2828" font-family="'ArialMT'" font-size="14.2451"></text>
	</g>
	<g id="g621" transform="matrix(0.774557,0,0,0.77345,-242.045,38.11)">
		
			<text id="text623" transform="matrix(1.2929 0 0 1.2929 437.972 179.7713)" fill="#2B2828" font-family="'ArialMT'" font-size="10.6838">Shift</text>
	</g>
	<path id="path625" fill="none" d="M76.044,162.399l-6.139,6.139h3.069v12.278h7.675v-12.278h3.069L76.044,162.399z"/>
	<g id="g627" transform="matrix(0.774557,0,0,0.77345,130.092,38.11)">
		
			<text id="text629" transform="matrix(1.2929 0 0 1.2929 694.916 179.7713)" fill="#2B2828" font-family="'ArialMT'" font-size="10.6838">Shift</text>
	</g>
	<path id="path631" fill="none" d="M633.175,162.399l-6.14,6.139h3.071v12.278h6.138v-12.278h3.07L633.175,162.399z"/>
	<g id="g633" transform="matrix(0.774557,0,0,0.77345,-262.829,-30.0835)">
		
			<text id="text635" transform="matrix(1.2929 0 0 1.2929 423.6219 132.6176)" fill="#2B2828" font-family="'ArialMT'" font-size="14.2451"><!--`--></text>
	</g>
	<g id="g637" transform="matrix(0.774557,0,0,0.77345,-263.819,-44.9081)">
		
			<text id="text639" transform="matrix(1.2929 0 0 1.2929 422.9383 122.367)" fill="#2B2828" font-family="'ArialMT'" font-size="14.2451"><!--~--></text>
	</g>
	<g id="g641" transform="matrix(0.774557,0,0,0.77345,-262.829,-18.2238)">
		
			<text id="text643" transform="matrix(1.2929 0 0 1.2929 423.6219 140.8185)" fill="#2B2828" font-family="'ArialMT'" font-size="10.6838">Tab</text>
	</g>
	<g id="g645" transform="matrix(0.774557,0,0,0.77345,-247.983,8.46086)">
		
			<text id="text647" transform="matrix(1.2929 0 0 1.2929 433.8725 159.2688)" fill="#2B2828" font-family="'ArialMT'" font-size="10.6838">Caps</text>
	</g>
	<g id="g649" transform="matrix(0.774557,0,0,0.77345,-247.983,16.3673)">
		
			<text id="text651" transform="matrix(1.2929 0 0 1.2929 433.8725 164.7369)" fill="#2B2828" font-family="'ArialMT'" font-size="10.6838">Lock</text>
	</g>
	<g id="g653" transform="matrix(0.774557,0,0,0.77345,62.7914,-31.0719)">
		
			<text id="row0_7_1" transform="matrix(1.2929 0 0 1.2929 648.4501 131.9347)" fill="#2B2828" font-family="'ArialMT'" font-size="14.2451"></text>
	</g>
	<g id="g657" transform="matrix(0.774557,0,0,0.77345,62.7914,-45.8965)">
		
			<text id="row0_15_1" transform="matrix(1.2929 0 0 1.2929 648.4501 121.6841)" fill="#2B2828" font-family="'ArialMT'" font-size="14.2451"></text>
	</g>
	<g id="g661" transform="matrix(0.774557,0,0,0.77345,92.4829,-31.0719)">
		
			<text id="row0_7_2" transform="matrix(1.2929 0 0 1.2929 668.9507 131.9347)" fill="#2B2828" font-family="'ArialMT'" font-size="14.2451"></text>
	</g>
	<g id="g665" transform="matrix(0.774557,0,0,0.77345,92.4829,-45.8965)">
		
			<text id="row0_15_2" transform="matrix(1.2929 0 0 1.2929 668.9507 121.6841)" fill="#2B2828" font-family="'ArialMT'" font-size="14.2451"></text>
	</g>
	<g id="g669" transform="matrix(0.774557,0,0,0.77345,123.165,-31.0719)">
		
			<text id="text671" transform="matrix(1.2929 0 0 1.2929 690.134 131.9347)" fill="#2B2828" font-family="'ArialMT'" font-size="14.2451"><!--\--></text>
	</g>
	<g id="g673" transform="matrix(0.774557,0,0,0.77345,123.165,-45.8965)">
		
			<text id="text675" transform="matrix(1.2929 0 0 1.2929 690.134 124.7542)" fill="#2B2828" font-family="'ArialMT'" font-size="14.2451"><!--|--></text>
	</g>
	<g id="g677" transform="matrix(0.774557,0,0,0.77345,82.5861,-6.36408)">
		
			<text id="text679" transform="matrix(1.2929 0 0 1.2929 662.1175 149.0199)" fill="#2B2828" font-family="'ArialMT'" font-size="14.2451"><!--[--></text>
	</g>
	<g id="g681" transform="matrix(0.774557,0,0,0.77345,81.5962,-19.2122)">
		
			<text id="text683" transform="matrix(1.2929 0 0 1.2929 661.4337 140.1356)" fill="#2B2828" font-family="'ArialMT'" font-size="14.2451"><!--{--></text>
	</g>
	<g id="g685" transform="matrix(0.774557,0,0,0.77345,111.288,-6.36408)">
		
			<text id="text687" transform="matrix(1.2929 0 0 1.2929 681.9338 149.0199)" fill="#2B2828" font-family="'ArialMT'" font-size="14.2451"><!--]--></text>
	</g>
	<g id="g689" transform="matrix(0.774557,0,0,0.77345,111.288,-19.2122)">
		
			<text id="text691" transform="matrix(1.2929 0 0 1.2929 681.9338 140.1356)" fill="#2B2828" font-family="'ArialMT'" font-size="14.2451"><!--}--></text>
	</g>
	<g id="g693" transform="matrix(0.774557,0,0,0.77345,59.8224,18.3438)">
		
			<text id="row2_7_0" transform="matrix(1.2929 0 0 1.2929 646.4005 166.1031)" fill="#2B2828" font-family="'ArialMT'" font-size="14.2451"></text>
	</g>
	<g id="g697" transform="matrix(0.774557,0,0,0.77345,59.8224,5.49565)">
		
			<text id="row2_15_0" transform="matrix(1.2929 0 0 1.2929 646.4005 157.2188)" fill="#2B2828" font-family="'ArialMT'" font-size="14.2451"></text>
	</g>
	<g id="g701" transform="matrix(0.774557,0,0,0.77345,89.5139,19.3322)">
		
			<text id="row2_7_1" transform="matrix(1.2929 0 0 1.2929 666.8984 166.7848)" fill="#2B2828" font-family="'ArialMT'" font-size="14.2451"></text>
	</g>
	<g id="g705" transform="matrix(0.774557,0,0,0.77345,88.524,6.48405)">
		
			<text id="row2_15_1" transform="matrix(1.2929 0 0 1.2929 666.2171 157.903)" fill="#2B2828" font-family="'ArialMT'" font-size="14.2451"></text>
	</g>
	<g id="g709" transform="matrix(0.774557,0,0,0.77345,70.7091,45.0281)">
		
			<text id="row3_7_0" transform="matrix(1.2929 0 0 1.2929 653.9173 184.5539)" fill="#2B2828" font-family="'ArialMT'" font-size="14.2451"></text>
	</g>
	<g id="g713" transform="matrix(0.774557,0,0,0.77345,70.7091,32.1803)">
		
			<text id="row3_15_0" transform="matrix(1.2929 0 0 1.2929 653.9173 175.6704)" fill="#2B2828" font-family="'ArialMT'" font-size="14.2451"></text>
	</g>
	<g id="g717" transform="matrix(0.774557,0,0,0.77345,42.0072,45.0281)">
		
			<text id="row3_6_0" transform="matrix(1.2929 0 0 1.2929 634.0984 184.5539)" fill="#2B2828" font-family="'ArialMT'" font-size="14.2451"></text>
	</g>
	<g id="g721" transform="matrix(0.774557,0,0,0.77345,41.0173,32.1803)">
		
			<text id="row3_14_0" transform="matrix(1.2929 0 0 1.2929 633.4147 175.6704)" fill="#2B2828" font-family="'ArialMT'" font-size="14.2451"></text>
	</g>
	<g id="g725" transform="matrix(0.774557,0,0,0.77345,11.3255,45.0281)">
		
			<text id="row3_5_0" transform="matrix(1.2929 0 0 1.2929 612.9146 184.5539)" fill="#2B2828" font-family="'ArialMT'" font-size="14.2451"></text>
	</g>
	<g id="g729" transform="matrix(0.774557,0,0,0.77345,10.3359,32.1803)">
		
			<text id="row3_13_0" transform="matrix(1.2929 0 0 1.2929 612.2303 175.6704)" fill="#2B2828" font-family="'ArialMT'" font-size="14.2451"></text>
	</g>
	<path id="path865" fill="#97C5D5" d="M539.552,193.094h36.836c1.535,0,3.07,1.535,3.07,4.604v27.627
		c0,1.535-1.535,4.604-3.07,4.604h-36.836c-1.535,0-3.068-3.069-3.068-4.604v-27.627
		C536.484,194.629,538.017,193.094,539.552,193.094z"/>
	<g id="g867" transform="matrix(0.774557,0,0,0.77345,49.697,62.8175)">
		
			<text id="text869" transform="matrix(1.2929 0 0 1.2929 639.4086 196.8544)" fill="#2B2828" font-family="'ArialMT'" font-size="10.6838">Alt Gr</text>
	</g>
	<g id="g11615">
		<path fill="none" d=""/>
		<path id="path10716" fill="#2B2828" stroke="#2B2828" stroke-width="1.5367" d="M100.265,86.304l5.311-3.07v6.141L100.265,86.304z
			"/>
		<path id="path4208" fill="#2B2828" stroke="#2B2828" stroke-width="1.5367" d="M103.808,86.304"/>
		<path id="path5410" fill="#2B2828" stroke="#2B2828" stroke-width="1.5371" d="M99.198,83.231v6.146"/>
	</g>
	<g id="g11619">
		<path fill="none" d=""/>
		<path id="path10719" fill="#2B2828" stroke="#2B2828" stroke-width="1.5367" d="M118.109,98.598l-5.312,3.071v-6.141
			L118.109,98.598z"/>
		<path id="path4208-0" fill="#2B2828" stroke="#2B2828" stroke-width="1.5367" d="M114.565,98.598"/>
		<path id="path5410-9" fill="#2B2828" stroke="#2B2828" stroke-width="1.5371" d="M119.176,95.525v6.147"/>
	</g>
	<path fill="none" d=""/>
	<path id="path3528" fill="#2B2828" stroke="#2B2828" stroke-width="1.5367" d="M681.141,127.796l5.317-3.073v6.146L681.141,127.796
		z"/>
	<path id="path6545" fill="#2B2828" stroke="#2B2828" stroke-width="1.5367" d="M684.687,127.796"/>
	<path fill="none" d=""/>
	<path id="path11856" fill="#2B2828" stroke="#2B2828" stroke-width="1.5367" d="M704.192,54.731l5.317-3.073v6.147L704.192,54.731z
		"/>
	<path id="path11623-1-0" fill="#2B2828" stroke="#2B2828" stroke-width="1.5367" d="M707.739,54.731"/>
</g>
<script xlink:href="keyboards.js" />
<script><![CDATA[
  document.loadKeyboard = function(layout) {
    if (!Keyboards || !(layout in Keyboards)) {
      return;
    }

    var layout = Keyboards[layout];
    for (var key in layout) {
      for (var i = 0; i < layout[key].length; ++i) {
        for (var j = 0; j < layout[key][i].length; ++j) {
          var dom = document.getElementById(key + "_" + i + "_" + j);
          if (dom) {
            dom.innerHTML = layout[key][i][j].replace(/&/g, "&amp;")
                                             .replace(/</g, "&lt;")
                                             .replace(/>/g, "&gt;")
                                             .replace(/\"/g, "&quot;")
                                             .replace(/\'/g, "&apos;");
          }
        }
      }
    }
  }

  document.highlight = function(layout, row, finger, position) {
    if (!Keyboards || !(layout in Keyboards)) {
      return;
    }

    var layout = Keyboards[layout];
    var dom;

    if (row != -1) {
      var kRow;
      switch(row) {
        case 0: kRow = layout.row0; break;
        case 1: kRow = layout.row1; break;
        case 2: kRow = layout.row2; break;
        default: return;
      }

      if (!finger in kRow) {
        return;
      }

      if (!position in kRow[finger]) {
        return;
      }

      dom = document.getElementById("row" + row + "_" + finger + "_" + position + 'b');
      if (!dom && finger < 8) {
        dom = document.getElementById("row" + row + "_" + (finger + 8) + "_" + position + 'b');
      }

      if (!dom && finger >= 8) {
        dom = document.getElementById("row" + row + "_" + (finger - 8) + "_" + position + 'b');
      }
    } else {
      dom = document.getElementById("space");
    }

    if (!dom) {
      return;
    }

    animate(dom);

    if (finger >= 8 && row != -1) {
      var s = finger < 12 ? document.getElementById('r_shift')
                          : document.getElementById('l_shift');
      animate(s);
    }
  }

  function animate(dom) {
    var R = 0x97, G = 0xc5, B = 0xd5;
    var r = 0x00, g = 0x00, b = 0x00;
    var step = 10;
    var rS = (R - r) / step;
    var gS = (G - g) / step;
    var bS = (B - b) / step;

    function update() {
      if (!step-- && id) {
        dom.setAttribute('style', 'fill:rgb(' + R + ',' + G + ',' + B + ');');
        clearInterval(id);
      } else {
        dom.setAttribute('style', 'fill:rgb(' + Math.round(r) + ',' + Math.round(g) + ',' + Math.round(b) + ');');
        r+=rS; g+=gS; b+=bS;
      }
    };

    var id = setInterval(update, 50);
    update();
  }

]]></script>
</svg>
